<?xml version="1.0" encoding="UTF-8"?><svg xmlns="http://www.w3.org/2000/svg" xmlns:xlink="http://www.w3.org/1999/xlink" fill-opacity="1" color-rendering="auto" color-interpolation="auto" stroke="black" text-rendering="auto" stroke-linecap="square" width="199" stroke-miterlimit="10" stroke-opacity="1" shape-rendering="auto" fill="black" stroke-dasharray="none" font-weight="normal" stroke-width="1" height="268" font-family="'Dialog'" font-style="normal" stroke-linejoin="miter" font-size="12px" stroke-dashoffset="0" image-rendering="auto">
  <!--Generated by ySVG 2.5-->
  <defs id="genericDefs"/>
  <g>
    <defs id="defs1">
      <clipPath clipPathUnits="userSpaceOnUse" id="clipPath1">
        <path d="M0 0 L199 0 L199 268 L0 268 L0 0 Z"/>
      </clipPath>
      <clipPath clipPathUnits="userSpaceOnUse" id="clipPath2">
        <path d="M-15 -16 L184 -16 L184 252 L-15 252 L-15 -16 Z"/>
      </clipPath>
    </defs>
    <g fill="white" text-rendering="geometricPrecision" shape-rendering="geometricPrecision" transform="translate(15,16)" stroke="white">
      <rect x="-15" width="199" height="268" y="-16" clip-path="url(#clipPath2)" stroke="none"/>
    </g>
    <g text-rendering="geometricPrecision" stroke-miterlimit="1.45" shape-rendering="geometricPrecision" transform="matrix(1,0,0,1,15,16)" stroke-linecap="butt">
      <path fill="none" d="M139.1422 65.7411 L96.8578 83.2589" clip-path="url(#clipPath2)"/>
      <text x="114.1826" xml:space="preserve" y="65.2599" font-family="sans-serif" clip-path="url(#clipPath2)" stroke="none">1</text>
      <path fill="none" d="M28.5723 63.387 L69.4277 82.613" clip-path="url(#clipPath2)"/>
      <path fill="none" d="M15 109 L15 72" clip-path="url(#clipPath2)"/>
      <path fill="none" d="M56.2438 24.3162 L26.7562 47.6838" clip-path="url(#clipPath2)"/>
      <path fill="none" d="M80.0201 74.299 L70.9799 29.701" clip-path="url(#clipPath2)"/>
      <path fill="none" d="M90.0183 102.2568 L111.9817 143.7432" clip-path="url(#clipPath2)"/>
      <path fill="none" d="M126.1972 170.1606 L146.8028 207.8394" clip-path="url(#clipPath2)"/>
      <path fill="none" d="M69.663 95.8647 L28.337 117.1353" clip-path="url(#clipPath2)"/>
    </g>
    <g fill="rgb(255,204,0)" text-rendering="geometricPrecision" shape-rendering="geometricPrecision" transform="matrix(1,0,0,1,15,16)" stroke="rgb(255,204,0)">
      <circle r="15" clip-path="url(#clipPath2)" cx="83" cy="89" stroke="none"/>
    </g>
    <g font-size="24px" stroke-linecap="butt" transform="matrix(1,0,0,1,15,16)" text-rendering="geometricPrecision" font-family="sans-serif" shape-rendering="geometricPrecision" stroke-miterlimit="1.45">
      <text x="75.3652" xml:space="preserve" y="97.3086" clip-path="url(#clipPath2)" stroke="none">0</text>
      <circle fill="none" r="15" clip-path="url(#clipPath2)" cx="83" cy="89"/>
    </g>
    <g fill="rgb(255,204,0)" text-rendering="geometricPrecision" shape-rendering="geometricPrecision" transform="matrix(1,0,0,1,15,16)" stroke="rgb(255,204,0)">
      <circle r="15" clip-path="url(#clipPath2)" cx="15" cy="57" stroke="none"/>
    </g>
    <g font-size="24px" stroke-linecap="butt" transform="matrix(1,0,0,1,15,16)" text-rendering="geometricPrecision" font-family="sans-serif" shape-rendering="geometricPrecision" stroke-miterlimit="1.45">
      <text x="5.0039" xml:space="preserve" y="65.3086" clip-path="url(#clipPath2)" stroke="none">∞</text>
      <circle fill="none" r="15" clip-path="url(#clipPath2)" cx="15" cy="57"/>
    </g>
    <g fill="rgb(255,204,0)" text-rendering="geometricPrecision" shape-rendering="geometricPrecision" transform="matrix(1,0,0,1,15,16)" stroke="rgb(255,204,0)">
      <circle r="15" clip-path="url(#clipPath2)" cx="68" cy="15" stroke="none"/>
    </g>
    <g font-size="24px" stroke-linecap="butt" transform="matrix(1,0,0,1,15,16)" text-rendering="geometricPrecision" font-family="sans-serif" shape-rendering="geometricPrecision" stroke-miterlimit="1.45">
      <text x="58.0039" xml:space="preserve" y="23.3086" clip-path="url(#clipPath2)" stroke="none">∞</text>
      <circle fill="none" r="15" clip-path="url(#clipPath2)" cx="68" cy="15"/>
    </g>
    <g fill="rgb(255,204,0)" text-rendering="geometricPrecision" shape-rendering="geometricPrecision" transform="matrix(1,0,0,1,15,16)" stroke="rgb(255,204,0)">
      <circle r="15" clip-path="url(#clipPath2)" cx="119" cy="157" stroke="none"/>
    </g>
    <g font-size="24px" stroke-linecap="butt" transform="matrix(1,0,0,1,15,16)" text-rendering="geometricPrecision" font-family="sans-serif" shape-rendering="geometricPrecision" stroke-miterlimit="1.45">
      <text x="109.0039" xml:space="preserve" y="165.3086" clip-path="url(#clipPath2)" stroke="none">∞</text>
      <circle fill="none" r="15" clip-path="url(#clipPath2)" cx="119" cy="157"/>
    </g>
    <g fill="rgb(255,204,0)" text-rendering="geometricPrecision" shape-rendering="geometricPrecision" transform="matrix(1,0,0,1,15,16)" stroke="rgb(255,204,0)">
      <circle r="15" clip-path="url(#clipPath2)" cx="154" cy="221" stroke="none"/>
    </g>
    <g font-size="24px" stroke-linecap="butt" transform="matrix(1,0,0,1,15,16)" text-rendering="geometricPrecision" font-family="sans-serif" shape-rendering="geometricPrecision" stroke-miterlimit="1.45">
      <text x="144.0039" xml:space="preserve" y="229.3086" clip-path="url(#clipPath2)" stroke="none">∞</text>
      <circle fill="none" r="15" clip-path="url(#clipPath2)" cx="154" cy="221"/>
    </g>
    <g fill="rgb(255,204,0)" text-rendering="geometricPrecision" shape-rendering="geometricPrecision" transform="matrix(1,0,0,1,15,16)" stroke="rgb(255,204,0)">
      <circle r="15" clip-path="url(#clipPath2)" cx="153" cy="60" stroke="none"/>
    </g>
    <g font-size="24px" stroke-linecap="butt" transform="matrix(1,0,0,1,15,16)" text-rendering="geometricPrecision" font-family="sans-serif" shape-rendering="geometricPrecision" stroke-miterlimit="1.45">
      <text x="143.0039" xml:space="preserve" y="68.3086" clip-path="url(#clipPath2)" stroke="none">∞</text>
      <circle fill="none" r="15" clip-path="url(#clipPath2)" cx="153" cy="60"/>
    </g>
    <g fill="rgb(255,204,0)" text-rendering="geometricPrecision" shape-rendering="geometricPrecision" transform="matrix(1,0,0,1,15,16)" stroke="rgb(255,204,0)">
      <circle r="15" clip-path="url(#clipPath2)" cx="15" cy="124" stroke="none"/>
    </g>
    <g font-size="24px" stroke-linecap="butt" transform="matrix(1,0,0,1,15,16)" text-rendering="geometricPrecision" font-family="sans-serif" shape-rendering="geometricPrecision" stroke-miterlimit="1.45">
      <text x="5.0039" xml:space="preserve" y="132.3086" clip-path="url(#clipPath2)" stroke="none">∞</text>
      <circle fill="none" r="15" clip-path="url(#clipPath2)" cx="15" cy="124"/>
    </g>
  </g>
</svg>
